<?xml version="1.0" encoding="UTF-8" standalone="no"?>
<!-- Created with Inkscape (http://www.inkscape.org/) -->

<svg
   xmlns:dc="http://purl.org/dc/elements/1.1/"
   xmlns:cc="http://creativecommons.org/ns#"
   xmlns:rdf="http://www.w3.org/1999/02/22-rdf-syntax-ns#"
   xmlns:svg="http://www.w3.org/2000/svg"
   xmlns="http://www.w3.org/2000/svg"
   xmlns:sodipodi="http://sodipodi.sourceforge.net/DTD/sodipodi-0.dtd"
   xmlns:inkscape="http://www.inkscape.org/namespaces/inkscape"
   width="1920"
   height="1080"
   id="svg2"
   version="1.1"
   inkscape:version="0.48.4 r"
   sodipodi:docname="drawing.svg">
  <defs
     id="defs4" />
  <sodipodi:namedview
     id="base"
     pagecolor="#ffffff"
     bordercolor="#666666"
     borderopacity="1.0"
     inkscape:pageopacity="0.0"
     inkscape:pageshadow="2"
     inkscape:zoom="0.98994949"
     inkscape:cx="999.0901"
     inkscape:cy="599.8167"
     inkscape:document-units="px"
     inkscape:current-layer="layer1"
     showgrid="false"
     inkscape:window-width="1920"
     inkscape:window-height="1018"
     inkscape:window-x="1672"
     inkscape:window-y="-8"
     inkscape:window-maximized="1">
    <inkscape:grid
       type="xygrid"
       id="grid3774"
       empspacing="5"
       visible="true"
       enabled="true"
       snapvisiblegridlinesonly="true" />
  </sodipodi:namedview>
  <metadata
     id="metadata7">
    <rdf:RDF>
      <cc:Work
         rdf:about="">
        <dc:format>image/svg+xml</dc:format>
        <dc:type
           rdf:resource="http://purl.org/dc/dcmitype/StillImage" />
        <dc:title></dc:title>
      </cc:Work>
    </rdf:RDF>
  </metadata>
  <g
     inkscape:label="Layer 1"
     inkscape:groupmode="layer"
     id="layer1"
     transform="translate(0,27.637817)">
    <path
       style="fill:#0055d4;stroke:#ffffff;stroke-width:3;stroke-linecap:butt;stroke-linejoin:miter;stroke-miterlimit:4;stroke-opacity:1;stroke-dasharray:none"
       d="m 970,460 c 10,15 6.11297,26.711 11.42857,40 3.10771,7.76926 21.45643,35.65848 18.57143,41.42857 -0.22355,0.4471 -27.69644,-17.77856 -32.85714,-15.71428 C 953.096,531.33303 940,540.4223 940,540 c 0,-9.8205 15,-30 20,-40 5,-10 5.29854,-25.01039 10,-40 z"
       id="path3004"
       inkscape:connector-curvature="0"
       transform="translate(0,-27.637817)"
       sodipodi:nodetypes="csssszc" />
    <path
       style="fill:#aa4400;stroke:#ffffff;stroke-width:3;stroke-linecap:butt;stroke-linejoin:miter;stroke-opacity:1;stroke-miterlimit:4;stroke-dasharray:none"
       d="m 280,340 80,-40 60,-60 100,0 40,60 0,120 -100,60 -100,0 20,-80 -80,-20 z"
       id="path3776"
       inkscape:connector-curvature="0"
       transform="translate(0,-27.637817)" />
    <path
       style="fill:#aa4400;stroke:#ffffff;stroke-width:3;stroke-linecap:butt;stroke-linejoin:miter;stroke-opacity:1;stroke-miterlimit:4;stroke-dasharray:none"
       d="m 1160,160 60,40 -20,60 -60,20 -20,-40 -20,-60 20,-20 z"
       id="path3778"
       inkscape:connector-curvature="0"
       transform="translate(0,-27.637817)" />
    <path
       style="fill:#aa4400;stroke:#ffffff;stroke-width:3;stroke-linecap:butt;stroke-linejoin:miter;stroke-opacity:1;stroke-miterlimit:4;stroke-dasharray:none"
       d="m 1175,434.28571 12.8571,7.85715 -4.2857,12.85714 -12.1428,-1.42857 -2.8572,6.42857 -7.8571,-13.57143 5.7143,-10 z"
       id="path3782"
       inkscape:connector-curvature="0"
       transform="translate(0,-27.637817)" />
    <path
       style="fill:#ccff00;stroke:none;stroke-width:1px;stroke-linecap:butt;stroke-linejoin:miter;stroke-opacity:1"
       d="m 970.89286,440.53571 0.89286,1.78572 1.42857,-1.07143 -1.07143,3.03571 2.5,0.35715 -2.32143,1.25 1.96429,1.42857 -1.96429,-0.17857 -0.35714,2.32142 -1.07143,-2.14285 -1.07143,1.96428 -0.17857,-2.14285 -2.32143,-0.71429 1.96429,-1.25 -2.5,-1.78571 1.96428,0.89285 -0.35714,-3.21428 1.96428,1.60714 z"
       id="path3784"
       inkscape:connector-curvature="0"
       transform="translate(0,-27.637817)" />
  </g>
</svg>
